<?xml version="1.0" encoding="UTF-8"?>
<svg width="1920px" height="725px" viewBox="0 0 1920 725" version="1.1" xmlns="http://www.w3.org/2000/svg" xmlns:xlink="http://www.w3.org/1999/xlink">
    <!-- Generator: Sketch 42 (36781) - http://www.bohemiancoding.com/sketch -->
    <title>Tüm Arkaplanlar</title>
    <desc>Created with Sketch.</desc>
    <defs>
        <linearGradient x1="50%" y1="0%" x2="50%" y2="106.974156%" id="linearGradient-1">
            <stop stop-color="#3023AE" offset="0%"></stop>
            <stop stop-color="#C96DD8" offset="100%"></stop>
        </linearGradient>
        <linearGradient x1="42.201284%" y1="9.07732659%" x2="90.2495118%" y2="48.8200679%" id="linearGradient-2">
            <stop stop-color="#171B26" offset="0%"></stop>
            <stop stop-color="#000000" offset="100%"></stop>
        </linearGradient>
        <linearGradient x1="14.2120152%" y1="37.062751%" x2="55.4502984%" y2="5.15940219%" id="linearGradient-3">
            <stop stop-color="#171B26" offset="0%"></stop>
            <stop stop-color="#3023AE" offset="49.224729%"></stop>
            <stop stop-color="#C96DD8" offset="100%"></stop>
        </linearGradient>
        <linearGradient x1="83.9271311%" y1="81.9781802%" x2="62.1042059%" y2="28.2880299%" id="linearGradient-4">
            <stop stop-color="#171B26" offset="0%"></stop>
            <stop stop-color="#C96DD8" offset="100%"></stop>
        </linearGradient>
        <linearGradient x1="0%" y1="0%" x2="101.999998%" y2="100.999999%" id="linearGradient-5">
            <stop stop-color="#3023AE" offset="0%"></stop>
            <stop stop-color="#C96DD8" offset="100%"></stop>
        </linearGradient>
        <linearGradient x1="61.8981441%" y1="74.651275%" x2="-9.37022406%" y2="0%" id="linearGradient-6">
            <stop stop-color="#171B26" offset="0%"></stop>
            <stop stop-color="#000000" offset="100%"></stop>
        </linearGradient>
        <filter x="-50%" y="-50%" width="200%" height="200%" filterUnits="objectBoundingBox" id="filter-7">
            <feGaussianBlur stdDeviation="10" in="SourceGraphic"></feGaussianBlur>
        </filter>
        <linearGradient x1="50%" y1="0%" x2="50%" y2="100%" id="linearGradient-8">
            <stop stop-color="#FF8176" offset="0%"></stop>
            <stop stop-color="#873998" offset="100%"></stop>
        </linearGradient>
        <linearGradient x1="0%" y1="0%" x2="100%" y2="50%" id="linearGradient-9">
            <stop stop-color="#F97D78" offset="0%"></stop>
            <stop stop-color="#934094" offset="100%"></stop>
        </linearGradient>
        <linearGradient x1="0%" y1="0%" x2="101.999998%" y2="100.999999%" id="linearGradient-10">
            <stop stop-color="#11151E" offset="0%"></stop>
            <stop stop-color="#11151E" offset="100%"></stop>
        </linearGradient>
        <linearGradient x1="50%" y1="0%" x2="50%" y2="100%" id="linearGradient-11">
            <stop stop-color="#FBDA61" offset="0%"></stop>
            <stop stop-color="#F76B1C" offset="100%"></stop>
        </linearGradient>
    </defs>
    <g id="Page-1" stroke="none" stroke-width="1" fill="none" fill-rule="evenodd">
        <g id="Artboard">
            <g id="Tüm-Arkaplanlar" transform="translate(-567.000000, -722.000000)">
                <g id="Group-2">
                    <ellipse id="Combined-Shape-Copy-9" stroke="url(#linearGradient-1)" transform="translate(617.200048, 1476.217064) rotate(-36.000000) translate(-617.200048, -1476.217064) " cx="617.200048" cy="1476.21706" rx="200" ry="295"></ellipse>
                    <circle id="Combined-Shape-Copy-8" fill-opacity="0.270000011" fill="url(#linearGradient-2)" cx="1214" cy="1725" r="738"></circle>
                    <circle id="Combined-Shape-Copy-7" fill-opacity="0.0599999987" fill="#000000" cx="1246" cy="1291" r="50"></circle>
                    <circle id="Combined-Shape-Copy-5" stroke="url(#linearGradient-3)" cx="2372" cy="1376" r="600"></circle>
                    <circle id="Combined-Shape-Copy-6" stroke="url(#linearGradient-4)" opacity="0.639775815" cx="600" cy="941" r="600"></circle>
                    <path d="M1425,748 C1408.43146,748 1395,734.568542 1395,718 C1395,701.431458 1408.43146,688 1425,688 C1441.56854,688 1455,701.431458 1455,718 C1455,734.568542 1441.56854,748 1425,748 Z M1425,740.5 C1437.42641,740.5 1447.5,730.426407 1447.5,718 C1447.5,705.573593 1437.42641,695.5 1425,695.5 C1412.57359,695.5 1402.5,705.573593 1402.5,718 C1402.5,730.426407 1412.57359,740.5 1425,740.5 Z" id="Combined-Shape-Copy-4" fill="url(#linearGradient-5)"></path>
                    <path d="M1621,1176 C1510.54305,1176 1421,1086.45695 1421,976 C1421,865.54305 1510.54305,776 1621,776 C1731.45695,776 1821,865.54305 1821,976 C1821,1086.45695 1731.45695,1176 1621,1176 Z M1621,1088 C1682.85589,1088 1733,1037.85589 1733,976 C1733,914.144108 1682.85589,864 1621,864 C1559.14411,864 1509,914.144108 1509,976 C1509,1037.85589 1559.14411,1088 1621,1088 Z" id="Combined-Shape-Copy" fill-opacity="0.300000012" fill="url(#linearGradient-6)"></path>
                    <path d="M1150,1076.5133 C1150,1051.03176 1147.63273,1026.16936 1142.74037,1000.50572 L1140.83442,990.636024 L1140.57948,990.636024 C1118.71561,894.14852 1061.35484,806.960138 982.033076,750.206353 C976.570144,746.285182 969.00702,747.559866 965.085849,753.010657 C961.188958,758.461449 962.427223,766.048853 967.878014,769.945744 C1044.8932,825.06065 1099.89885,910.79225 1118.84915,1005.15528 L1119.34689,1007.61967 C1123.64439,1030.86748 1125.72031,1053.42331 1125.72031,1076.5133 C1125.72031,1083.2145 1131.14682,1088.65315 1137.86015,1088.65315 C1144.57349,1088.65315 1150,1083.2145 1150,1076.5133 M448.243999,850.177994 C504.245114,775.141599 585.824886,723.996423 677.990605,706.162987 C701.335531,701.586265 725.408848,699.279694 749.518584,699.279694 C806.98862,699.279694 862.407022,712.160072 914.280589,737.544492 C920.326233,740.494475 927.598001,738.017946 930.523704,731.984442 C933.461547,725.963078 930.972879,718.69131 924.951515,715.741327 C869.73949,688.705887 810.727693,675 749.518584,675 C723.842808,675 698.203451,677.464389 673.353184,682.332468 C575.263219,701.319188 488.414753,755.766403 428.783824,835.658736 C424.765535,841.036689 425.882401,848.636233 431.248213,852.642383 C433.433385,854.269122 435.970614,855.058212 438.495702,855.058212 C442.210495,855.058212 445.864589,853.370773 448.243999,850.177994 M374.567267,1177.88103 C381.086365,1176.31499 385.104654,1169.75947 383.550754,1163.24037 C383.307957,1162.23276 383.06516,1161.38297 382.834503,1160.59388 L382.858783,1160.59388 L380.309415,1146.11105 C364.090579,1064.05782 376.849558,977.573549 415.709209,902.573574 C418.79273,896.625049 417.093151,889.292581 411.144626,886.20906 C405.183961,883.125539 399.114038,885.456389 396.030517,891.404914 C354.852155,970.860213 336.630245,1062.4675 360.909939,1149.49806 L360.909939,1149.55876 C360.909939,1158.74863 360.230108,1162.1235 361.541211,1165.93542 C361.820427,1166.76093 359.635255,1167.64713 359.938751,1168.92182 C361.274134,1174.46973 366.251472,1178.23308 371.738683,1178.23308 C372.673451,1178.2088 373.620359,1178.0874 374.567267,1177.88103 M661.796049,1459.3191 C758.841987,1329.98117 788.596752,1214.64048 761.354935,1073.63616 C760.080251,1067.05636 753.682552,1062.74672 747.127034,1064.0214 C740.547237,1065.29608 736.249731,1071.65736 737.512275,1078.2493 C763.710066,1213.6086 736.128333,1319.7837 642.384434,1444.73914 C638.354004,1450.10496 639.446591,1457.71664 644.812403,1461.72279 C646.997576,1463.36167 649.559083,1464.15076 652.084171,1464.15076 C655.774685,1464.18718 659.416639,1462.51188 661.796049,1459.3191 M714.93216,1468.86102 C809.768645,1334.80069 837.908811,1213.83925 809.015975,1064.43415 C805.932454,1048.4824 796.815429,1034.69153 783.364478,1025.59878 C769.949947,1016.53032 753.79181,1013.24042 737.900751,1016.33608 C721.985411,1019.4196 708.218824,1028.51235 699.138219,1041.9633 C690.069753,1055.40211 686.767715,1071.58452 689.851236,1087.49986 C700.66784,1143.45242 700.704259,1194.00274 689.972634,1242.04012 C688.515853,1248.5835 692.631261,1255.06617 699.174638,1256.52296 C705.754435,1257.99188 712.212834,1253.86433 713.669616,1247.32095 C725.141771,1195.98154 725.153911,1142.1656 713.693895,1082.86244 C711.848639,1073.29624 713.827434,1063.58437 719.266085,1055.51137 C724.704737,1047.43837 732.959833,1041.98758 742.526032,1040.13018 C752.080092,1038.28492 761.74341,1040.25158 769.779989,1045.67809 C777.865127,1051.12888 783.328058,1059.40826 785.209735,1068.99874 C812.718628,1211.27775 785.780308,1326.67913 695.132069,1454.80308 C691.259458,1460.27815 692.558422,1467.84127 698.033493,1471.73816 C700.170106,1473.24351 702.610215,1473.9719 705.038185,1473.9719 C708.813677,1473.9719 712.56489,1472.19948 714.93216,1468.86102 M612.860326,1443.36734 C649.292007,1396.62893 675.635475,1353.27754 693.383931,1310.80021 C695.969719,1304.60889 693.044016,1297.49494 686.852694,1294.90915 C680.637092,1292.29908 673.547421,1295.22479 670.973774,1301.42825 C654.075106,1341.87822 628.799945,1383.42078 593.715787,1428.42319 C589.588239,1433.71616 590.535147,1441.32785 595.82812,1445.44326 C598.049712,1447.17925 600.671919,1448.0169 603.281986,1448.0169 C606.899661,1448.04118 610.468776,1446.43872 612.860326,1443.36734 M567.942891,1421.85553 C655.009875,1313.16748 684.643241,1225.12931 670.196823,1118.0073 C669.298475,1111.34252 663.143572,1106.7658 656.539495,1107.60345 C649.898999,1108.5018 645.237298,1114.60814 646.135646,1121.26078 C659.780835,1222.37357 632.539018,1302.41158 549.00473,1406.69286 C544.804343,1411.93728 545.654132,1419.58538 550.886406,1423.74935 C553.120138,1425.54605 555.803044,1426.42012 558.473811,1426.42012 C562.018646,1426.40798 565.551341,1424.87835 567.942891,1421.85553 M856.021463,1172.73373 C862.734798,1172.73373 868.076331,1167.46504 867.979212,1160.78812 C867.457199,1126.61445 863.681706,1091.31178 856.664875,1055.18359 C846.73448,1003.85632 801.683507,966.611267 749.494305,966.611267 C742.513892,966.611267 735.497061,967.291098 728.650187,968.614342 C699.988008,974.174392 675.21058,990.563185 658.870346,1014.7579 C651.028005,1026.38787 645.552934,1039.23183 642.602951,1052.93772 C641.194729,1059.49324 645.358696,1065.95164 651.914214,1067.35986 C658.494011,1068.73166 664.92813,1064.59197 666.336352,1058.0486 C668.630783,1047.37767 672.904009,1037.3623 678.998212,1028.31811 C691.696493,1009.50135 710.97457,996.730228 733.275469,992.408442 C738.604862,991.376555 744.067793,990.805982 749.494305,990.805982 C790.065674,990.805982 825.113412,1019.69882 832.834355,1059.61464 C839.54769,1094.35888 843.201784,1128.39901 843.699518,1161.15232 C843.796637,1167.79281 849.198869,1172.74587 855.839365,1172.74587 C855.887924,1172.73373 855.960764,1172.73373 856.021463,1172.73373 M772.135119,1470.70628 C824.870615,1389.50284 855.135254,1309.84116 864.640754,1227.16881 C865.393425,1220.50403 860.634605,1214.48266 853.969829,1213.72999 C847.280773,1212.97732 841.283688,1217.74828 840.531018,1224.40092 C831.450412,1303.24923 802.411898,1379.48747 751.764456,1457.47384 C748.110362,1463.10673 749.712822,1470.6213 755.333571,1474.27539 C757.385205,1475.59864 759.679636,1476.22991 761.937648,1476.22991 C765.907378,1476.22991 769.828548,1474.28753 772.135119,1470.70628 M833.866242,1463.39809 C911.354886,1330.6003 933.765044,1197.94819 904.362334,1045.93303 C895.730903,1001.36765 868.209869,962.592978 828.888905,939.575828 C823.110337,936.17667 815.668611,938.119046 812.293734,943.909753 C808.906716,949.70046 810.849092,957.130046 816.627659,960.517064 C849.92726,980.013658 873.211486,1012.82766 880.531814,1050.54617 C908.732679,1196.44285 887.269429,1323.74129 812.912866,1451.16112 C809.550128,1456.96397 811.504644,1464.39356 817.271071,1467.75629 C819.189167,1468.89744 821.3015,1469.41945 823.389554,1469.41945 C827.541382,1469.41945 831.60823,1467.29498 833.866242,1463.39809 M527.043746,1395.25713 C614.244268,1287.77092 638.985276,1208.10925 618.347536,1101.35143 C611.561362,1066.29155 618.82099,1030.69752 638.803179,1001.12485 C658.785367,971.540045 689.062146,951.521437 724.085605,944.723123 C736.055494,942.380132 748.474557,941.79742 760.505146,942.756467 C767.121363,943.290621 773.045608,938.313283 773.579761,931.636368 C774.126054,924.959452 769.148717,919.095905 762.459661,918.561752 C748.2439,917.408467 733.578965,918.136858 719.448183,920.880463 C678.063444,928.892762 642.275175,952.565464 618.675312,987.516084 C595.07545,1022.45456 586.492578,1064.51913 594.504877,1105.94029 C613.576577,1204.60083 590.183091,1278.86027 508.190564,1379.9245 C503.965897,1385.14464 504.754987,1392.79274 509.962982,1396.99313 C512.208853,1398.8141 514.916039,1399.72459 517.598945,1399.72459 C521.143781,1399.74887 524.640057,1398.21925 527.043746,1395.25713 M899.991989,1443.8408 C918.1532,1407.49409 932.781716,1370.01839 943.476921,1332.44556 C945.297898,1325.9993 941.570965,1319.28596 935.124706,1317.45285 C928.666308,1315.59545 921.952972,1319.3588 920.131995,1325.80506 C909.861685,1361.93325 895.803742,1397.97645 878.298082,1432.97563 C875.29954,1438.97272 877.71537,1446.26877 883.712454,1449.26731 C885.472732,1450.1171 887.317989,1450.52985 889.138966,1450.52985 C893.58215,1450.55413 897.855376,1448.11402 899.991989,1443.8408 M957.947619,1268.05581 C969.917508,1194.91323 967.987273,1119.22128 952.023374,1036.70674 C933.26731,939.770065 848.106282,869.407511 749.542864,869.407511 C736.34685,869.407511 723.126557,870.682195 710.258319,873.195144 C656.126741,883.659692 609.32763,914.616302 578.468139,960.347106 C547.596508,1006.05363 536.379289,1061.05928 546.855977,1115.23941 C552.14895,1142.60263 553.569312,1165.57122 551.33558,1187.54434 C550.655749,1194.22126 555.511688,1200.16979 562.176464,1200.86176 C568.950499,1201.40805 574.801905,1196.68565 575.481736,1190.00873 C577.982545,1165.60764 576.452924,1140.38104 570.698637,1110.61413 C561.435933,1062.80742 571.342048,1014.27231 598.583865,973.931595 C625.813542,933.590883 667.101162,906.276227 714.8836,897.037803 C726.234358,894.816211 737.900751,893.699345 749.530724,893.699345 C836.512729,893.699345 911.646242,955.782523 928.192854,1041.33203 C943.59832,1120.98156 945.479996,1193.8692 933.983561,1264.14678 C932.903114,1270.763 937.370578,1277.00288 944.011075,1278.07118 C944.678766,1278.19258 945.310038,1278.24114 945.97773,1278.24114 C951.816996,1278.21686 956.976431,1274.00434 957.947619,1268.05581 M489.980793,1363.81492 C522.127108,1323.98409 544.476567,1288.63285 558.279573,1255.78242 C560.8775,1249.5911 557.976077,1242.47715 551.784755,1239.87923 C545.581293,1237.29344 538.491622,1240.18272 535.893695,1246.34976 C522.989038,1277.07572 501.780725,1310.50886 471.079051,1348.56728 C466.866524,1353.78741 467.692034,1361.43551 472.900028,1365.6359 C475.1459,1367.4326 477.840946,1368.31881 480.511713,1368.31881 C484.068688,1368.31881 487.589243,1366.77705 489.980793,1363.81492 M456.790451,1327.54106 C535.990814,1227.533 533.92704,1176.35141 523.013317,1119.84042 C511.298365,1059.31114 523.838827,997.822814 558.328132,946.714058 C570.710776,928.382889 585.582089,911.945536 602.553595,897.875453 C607.71303,893.590087 608.429281,885.941983 604.143915,880.782548 C599.858549,875.623113 592.210446,874.919002 587.051011,879.192228 C568.307087,894.731232 551.869734,912.880304 538.200266,933.129569 C500.081146,989.604137 486.229581,1057.55086 499.170658,1124.42928 C509.222451,1176.42424 510.703512,1220.34621 437.755171,1312.45123 C433.591204,1317.71992 434.477412,1325.34375 439.746106,1329.50772 C441.979838,1331.28013 444.626325,1332.12992 447.272811,1332.12992 C450.854066,1332.14206 454.398901,1330.56388 456.790451,1327.54106 M969.74755,1407.72475 C1017.19007,1288.02586 1026.69557,1167.19796 999.684413,1027.45618 C992.7647,991.607212 978.51252,958.319751 957.352766,928.504287 C953.468015,923.041356 945.904891,921.754532 940.41768,925.639283 C934.954749,929.524034 933.655785,937.099299 937.552676,942.57437 C956.697215,969.53697 969.589732,999.655931 975.841754,1032.08146 C1001.94242,1167.06442 992.83754,1283.58267 947.179575,1398.80196 C944.715186,1405.0297 947.762287,1412.0951 954.002169,1414.55948 C955.47109,1415.1422 956.964291,1415.40927 958.457493,1415.40927 C963.289152,1415.40927 967.865874,1412.50785 969.74755,1407.72475 M912.969486,896.103035 C917.242712,890.93146 916.502181,883.271217 911.306326,879.01013 C865.75762,841.473723 808.311864,820.799564 749.518584,820.799564 C733.20263,820.799564 716.874535,822.365604 701.007755,825.473405 C681.584,829.236757 662.54872,835.270261 644.448208,843.428239 C638.341865,846.183984 635.610399,853.370773 638.366144,859.477116 C641.10975,865.58346 648.284399,868.314925 654.415022,865.55918 C670.803816,858.178153 688.042399,852.715222 705.645177,849.303925 C719.994476,846.49962 734.75653,845.079258 749.518584,845.079258 C802.678975,845.079258 854.6618,863.786762 895.864441,897.741914 C898.122453,899.611451 900.841778,900.521939 903.573244,900.521939 C907.08166,900.521939 910.541516,899.016598 912.969486,896.103035 M1043.36358,1067.78475 C1049.99194,1066.76501 1054.54438,1060.56154 1053.5125,1053.93319 C1051.70366,1042.12112 1049.68844,1030.23621 1047.35759,1018.2299 C1019.77586,875.671672 894.529058,772.203756 749.518584,772.203756 C730.106969,772.203756 710.671074,774.073292 691.793611,777.763806 C612.204774,793.181411 543.371841,838.693698 497.980952,905.924171 C473.774097,941.77314 457.773779,981.409741 450.417032,1023.71711 C449.263746,1030.32118 453.69479,1036.60963 460.298867,1037.76291 C466.975783,1038.9162 473.191385,1034.48515 474.34467,1027.88108 C481.106565,988.960726 495.8322,952.504765 518.096679,919.50866 C559.857753,857.656139 623.179196,815.785807 696.418893,801.594325 C713.803154,798.207308 731.660869,796.48345 749.518584,796.48345 C882.923364,796.48345 998.154793,891.684131 1023.52707,1022.84304 C1025.78508,1034.55799 1027.75174,1046.13941 1029.51202,1057.66012 C1030.42251,1063.6572 1035.60622,1067.94257 1041.49405,1067.94257 C1042.11318,1067.93043 1042.73231,1067.88187 1043.36358,1067.78475 M1041.04487,1348.26378 C1060.60217,1274.64775 1067.12126,1199.62349 1061.02706,1118.90565 C1060.51719,1112.21659 1054.69006,1107.23926 1048.02528,1107.71271 C1041.32409,1108.21044 1036.31033,1114.03757 1036.82021,1120.71449 C1042.72017,1198.68872 1036.43173,1271.07863 1017.59069,1342.01176 C1015.86683,1348.4823 1019.73944,1355.14707 1026.20998,1356.87093 C1027.25401,1357.13801 1028.32231,1357.27155 1029.34206,1357.27155 C1034.70787,1357.28369 1039.61237,1353.69029 1041.04487,1348.26378 M427.679098,1285.87711 C489.786556,1203.83602 482.769724,1167.5136 475.340138,1129.03028 C472.839329,1116.16204 471.236869,1102.90533 470.557038,1089.57578 C470.229262,1082.86244 464.632793,1077.71515 457.822338,1078.0672 C451.133283,1078.40712 445.973848,1084.11285 446.313763,1090.8019 C447.042154,1105.24832 448.790292,1119.67046 451.497478,1133.64342 C458.417191,1169.48025 463.892262,1197.79038 408.316042,1271.20003 C404.273473,1276.54156 405.3175,1284.16539 410.671172,1288.19582 C412.868485,1289.85898 415.442132,1290.66021 417.9915,1290.66021 C421.657734,1290.69663 425.287548,1289.03347 427.679098,1285.87711 M403.035208,1237.24488 C437.099619,1187.07089 432.729274,1164.45436 427.679098,1138.28084 C411.035368,1052.27003 428.868803,964.911688 477.877366,892.291123 C526.898068,819.670558 601.242492,770.516317 687.216889,753.872587 C721.196321,747.21995 756.778213,746.030245 792.020189,750.667667 C798.709245,751.456757 804.779168,746.855755 805.628958,740.215259 C806.503027,733.562622 801.841325,727.468419 795.176549,726.59435 C757.373065,721.617013 719.083988,722.891697 682.591607,730.042067 C590.26807,747.924061 510.412156,800.720256 457.761639,878.718774 C405.123262,956.705152 385.966583,1050.53403 403.848578,1142.90613 C408.376741,1166.33603 411.363143,1181.79006 382.968041,1223.61183 C379.192549,1229.15974 380.64933,1236.72286 386.19724,1240.48622 C388.285294,1241.90658 390.652564,1242.58641 393.007695,1242.58641 C396.868166,1242.57427 400.680078,1240.71687 403.035208,1237.24488 M1094.97007,1262.98135 C1088.3053,1262.27724 1083.4615,1256.32872 1084.11705,1249.6518 C1091.71659,1175.101 1087.45551,1097.90371 1071.17597,1013.59248 C1048.69298,897.486978 964.915891,802.104199 852.537327,764.652771 C846.188187,762.528298 842.74047,755.657144 844.864943,749.295864 C846.989417,742.946724 853.812011,739.486868 860.22185,741.623481 C980.87979,781.830654 1070.87248,884.290964 1095.00649,1008.99147 C1111.77162,1095.66998 1116.11769,1175.19812 1108.28749,1252.12833 C1107.68049,1258.38035 1102.38752,1263.02991 1096.22048,1263.02991 C1095.832,1263.02991 1095.41925,1263.00563 1094.97007,1262.98135 Z" id="icon" fill-opacity="0.100000009" fill="#000000"></path>
                    <path d="M2452,1941 C2175.85763,1941 1952,1717.14237 1952,1441 C1952,1164.85763 2175.85763,941 2452,941 C2728.14237,941 2952,1164.85763 2952,1441 C2952,1717.14237 2728.14237,1941 2452,1941 Z M2327,1566 C2465.07119,1566 2577,1454.07119 2577,1316 C2577,1177.92881 2465.07119,1066 2327,1066 C2188.92881,1066 2077,1177.92881 2077,1316 C2077,1454.07119 2188.92881,1566 2327,1566 Z" id="Combined-Shape-Copy-2" fill-opacity="0.400000006" fill="#11151E"></path>
                    <path d="M1700,1000 C1423.85763,1000 1200,776.142375 1200,500 C1200,223.857625 1423.85763,0 1700,0 C1976.14237,0 2200,223.857625 2200,500 C2200,776.142375 1976.14237,1000 1700,1000 Z M1575,625 C1713.07119,625 1825,513.071187 1825,375 C1825,236.928813 1713.07119,125 1575,125 C1436.92881,125 1325,236.928813 1325,375 C1325,513.071187 1436.92881,625 1575,625 Z" id="Combined-Shape-Copy-3" fill-opacity="0.5" fill="#000000" opacity="0.196841033" transform="translate(1700.000000, 500.000000) rotate(-180.000000) translate(-1700.000000, -500.000000) "></path>
                </g>
                <path d="M1904,1015 C1895.71573,1015 1889,1008.28427 1889,1000 C1889,991.715729 1895.71573,985 1904,985 C1912.28427,985 1919,991.715729 1919,1000 C1919,1008.28427 1912.28427,1015 1904,1015 Z M1904,1006 C1907.31371,1006 1910,1003.31371 1910,1000 C1910,996.686292 1907.31371,994 1904,994 C1900.68629,994 1898,996.686292 1898,1000 C1898,1003.31371 1900.68629,1006 1904,1006 Z" id="Combined-Shape" fill="url(#linearGradient-5)" filter="url(#filter-7)"></path>
                <path d="M834.220563,885.720563 L834.220563,881.970563 L831.720563,881.970563 L831.720563,885.720563 L827.970563,885.720563 L827.970563,888.220563 L831.720563,888.220563 L831.720563,891.970563 L834.220563,891.970563 L834.220563,888.220563 L837.970563,888.220563 L837.970563,885.720563 L834.220563,885.720563 Z" id="Combined-Shape-Copy" fill="url(#linearGradient-5)" transform="translate(832.970563, 886.970563) rotate(-45.000000) translate(-832.970563, -886.970563) "></path>
                <path d="M2373.9632,1062.4632 L2373.9632,1051.2132 L2366.4632,1051.2132 L2366.4632,1062.4632 L2355.2132,1062.4632 L2355.2132,1069.9632 L2366.4632,1069.9632 L2366.4632,1081.2132 L2373.9632,1081.2132 L2373.9632,1069.9632 L2385.2132,1069.9632 L2385.2132,1062.4632 L2373.9632,1062.4632 Z" id="Combined-Shape-Copy-11" fill="url(#linearGradient-5)" transform="translate(2370.213203, 1066.213203) rotate(-45.000000) translate(-2370.213203, -1066.213203) "></path>
                <path d="M696.093157,1228.1066 L699.106602,1228.1066 L699.106602,1213.1066 L693.106602,1213.1066 L693.106602,1222.1066 L684.106602,1222.1066 L684.106602,1228.1066 L696.093157,1228.1066 Z" id="Combined-Shape-Copy-4" fill="url(#linearGradient-8)" transform="translate(691.606602, 1220.606602) rotate(-225.000000) translate(-691.606602, -1220.606602) "></path>
                <path d="M1193,862 C1184.71573,862 1178,855.284271 1178,847 C1178,838.715729 1184.71573,832 1193,832 C1201.28427,832 1208,838.715729 1208,847 C1208,855.284271 1201.28427,862 1193,862 Z M1193,853 C1196.31371,853 1199,850.313708 1199,847 C1199,843.686292 1196.31371,841 1193,841 C1189.68629,841 1187,843.686292 1187,847 C1187,850.313708 1189.68629,853 1193,853 Z" id="Combined-Shape" fill="url(#linearGradient-5)"></path>
                <rect id="Rectangle-2" fill="url(#linearGradient-9)" x="1060" y="1373" width="30" height="10"></rect>
                <rect id="Rectangle-2-Copy" fill="url(#linearGradient-10)" transform="translate(2169.000000, 919.333333) rotate(-270.000000) translate(-2169.000000, -919.333333) " x="2159" y="916" width="20" height="6.66666667"></rect>
                <ellipse id="Oval" stroke="url(#linearGradient-5)" stroke-width="4" cx="2245" cy="792" rx="15" ry="15"></ellipse>
                <ellipse id="Oval" fill="url(#linearGradient-11)" cx="2245" cy="792" rx="6" ry="6"></ellipse>
                <path d="M1880.64949,846.149495 L1880.64949,840.899495 L1877.14949,840.899495 L1877.14949,846.149495 L1871.89949,846.149495 L1871.89949,849.649495 L1877.14949,849.649495 L1877.14949,854.899495 L1880.64949,854.899495 L1880.64949,849.649495 L1885.89949,849.649495 L1885.89949,846.149495 L1880.64949,846.149495 Z" id="Combined-Shape-Copy" fill="url(#linearGradient-5)" transform="translate(1878.899495, 847.899495) rotate(-45.000000) translate(-1878.899495, -847.899495) "></path>
                <path d="M675.093157,852.106602 L678.106602,852.106602 L678.106602,837.106602 L672.106602,837.106602 L672.106602,846.106602 L663.106602,846.106602 L663.106602,852.106602 L675.093157,852.106602 Z" id="Combined-Shape-Copy-3" fill="url(#linearGradient-5)" transform="translate(670.606602, 844.606602) rotate(-315.000000) translate(-670.606602, -844.606602) "></path>
                <path d="M2145.49943,924.106602 L2147.1066,924.106602 L2147.1066,916.106602 L2143.9066,916.106602 L2143.9066,920.906602 L2139.1066,920.906602 L2139.1066,924.106602 L2145.49943,924.106602 Z" id="Combined-Shape-Copy-4" fill="url(#linearGradient-11)" transform="translate(2143.106602, 920.106602) rotate(-45.000000) translate(-2143.106602, -920.106602) "></path>
                <path d="M913.75,1112.25 L913.75,1107 L910.25,1107 L910.25,1112.25 L905,1112.25 L905,1115.75 L910.25,1115.75 L910.25,1121 L913.75,1121 L913.75,1115.75 L919,1115.75 L919,1112.25 L913.75,1112.25 Z" id="Combined-Shape" fill="url(#linearGradient-11)"></path>
                <path d="M1684.5,1152.5 L1684.5,1148 L1681.5,1148 L1681.5,1152.5 L1677,1152.5 L1677,1155.5 L1681.5,1155.5 L1681.5,1160 L1684.5,1160 L1684.5,1155.5 L1689,1155.5 L1689,1152.5 L1684.5,1152.5 Z" id="Combined-Shape-Copy" fill="url(#linearGradient-11)" transform="translate(1683.000000, 1154.000000) rotate(-45.000000) translate(-1683.000000, -1154.000000) "></path>
                <path d="M2093.98655,1333 L2097,1333 L2097,1318 L2091,1318 L2091,1327 L2082,1327 L2082,1333 L2093.98655,1333 Z" id="Combined-Shape-Copy-4" fill="url(#linearGradient-11)" transform="translate(2089.500000, 1325.500000) rotate(-225.000000) translate(-2089.500000, -1325.500000) "></path>
                <ellipse id="Oval" fill="#FFFFFF" cx="1352" cy="1220" rx="6" ry="6"></ellipse>
            </g>
        </g>
    </g>
</svg>