<?xml version="1.0" encoding="UTF-8"?>
<svg width="239px" height="79px" viewBox="0 0 239 79" version="1.1" xmlns="http://www.w3.org/2000/svg" xmlns:xlink="http://www.w3.org/1999/xlink">
    <!-- Generator: Sketch 42 (36781) - http://www.bohemiancoding.com/sketch -->
    <title>logo</title>
    <desc>Created with Sketch.</desc>
    <defs></defs>
    <g id="Page-1" stroke="none" stroke-width="1" fill="none" fill-rule="evenodd">
        <g id="Artboard" transform="translate(-377.000000, -1169.000000)">
            <g id="Tanıtım" transform="translate(0.000000, 996.000000)">
                <g id="yan-foto" transform="translate(375.000000, 120.000000)">
                    <g id="Group-3" transform="translate(0.000000, 53.000000)">
                        <g id="logo" transform="translate(2.000000, 0.000000)">
                            <g id="Logo" transform="translate(0.000000, 14.328358)" fill="#171B26">
                                <polygon id="Fill-1" points="88.8417005 33.52028 92.259755 22.4375419 96.7539187 22.4375419 100.144552 33.52028 103.976152 22.4375419 108.635586 22.4375419 101.908422 41.7067133 98.7112218 41.7067133 94.4927555 28.3087102 90.3024519 41.7067133 87.1052517 41.7067133 80.3788286 22.4375419 85.0375214 22.4375419"></polygon>
                                <polygon id="Fill-2" points="124.817985 22.4374678 124.817985 26.2698096 115.224161 26.2698096 115.224161 30.2392589 123.852303 30.2392589 123.852303 33.9063304 115.224161 33.9063304 115.224161 37.9032012 125.121103 37.9032012 125.121103 41.7066392 110.92343 41.7066392 110.92343 22.4374678"></polygon>
                                <polygon id="Fill-3" points="136.065103 34.7051117 140.972072 22.4373196 145.631506 22.4373196 137.884558 41.706491 134.245649 41.706491 126.499442 22.4373196 131.158135 22.4373196"></polygon>
                                <polygon id="Fill-4" points="161.813237 22.4374678 161.813237 26.2698096 152.219413 26.2698096 152.219413 30.2392589 160.848296 30.2392589 160.848296 33.9063304 152.219413 33.9063304 152.219413 37.9032012 162.116356 37.9032012 162.116356 41.7066392 147.918682 41.7066392 147.918682 22.4374678"></polygon>
                                <polygon id="Fill-5" points="179.428299 22.4374678 183.729029 22.4374678 183.729029 41.7066392 179.428299 41.7066392 170.248762 29.63228 170.248762 41.7066392 165.948031 41.7066392 165.948031 22.4374678 169.973064 22.4374678 179.428299 34.8423675"></polygon>
                                <polygon id="Fill-6" points="196.630407 26.159753 196.630407 41.7070098 192.329676 41.7070098 192.329676 26.159753 186.871312 26.159753 186.871312 22.4378384 202.08877 22.4378384 202.08877 26.159753"></polygon>
                                <polygon id="Fill-7" points="213.391473 26.159753 213.391473 41.7070098 209.090001 41.7070098 209.090001 26.159753 203.632379 26.159753 203.632379 22.4378384 218.849095 22.4378384 218.849095 26.159753"></polygon>
                                <polygon id="Fill-8" points="0 -0.000222336593 0 42.0036068 3.37136387 42.0036068 3.37136387 3.37188266 60.7720021 3.37188266 60.7720021 60.7717797 3.37136387 60.7717797 3.37136387 42.0036068 0 42.0036068 0 64.1438847 64.1441071 64.1438847 64.1441071 -0.000222336593"></polygon>
                                <polygon id="Fill-9" points="60.7719279 -0.000222336593 60.7719279 64.1438847 238.455922 64.1438847 238.455922 42.0036068 235.083817 42.0036068 235.083817 60.7717797 64.1440329 60.7717797 64.1440329 3.37188266 235.083817 3.37188266 235.083817 42.0036068 238.455922 42.0036068 238.455922 -0.000222336593"></polygon>
                                <path d="M32.0720535,31.4423963 C30.31263,31.4423963 28.885229,30.0313001 28.885229,28.2926279 C28.885229,26.5539557 30.31263,25.1428595 32.0720535,25.1428595 C33.8314771,25.1428595 35.2596191,26.5539557 35.2596191,28.2926279 C35.2596191,30.0313001 33.8314771,31.4423963 32.0720535,31.4423963 M32.0720535,19.4732764 C27.1384045,19.4732764 23.1474627,23.4167864 23.1474627,28.2926279 C23.1474627,34.9071415 32.0720535,44.6714236 32.0720535,44.6714236 C32.0720535,44.6714236 40.9966444,34.9071415 40.9966444,28.2926279 C40.9966444,23.4167864 37.0064436,19.4732764 32.0720535,19.4732764" id="Fill-10"></path>
                            </g>
                            <g id="Group" transform="translate(134.328358, 0.000000)">
                                <rect id="Rectangle-3" fill="#FF2800" x="0" y="0" width="84.6268657" height="25.0746269"></rect>
                                <path d="M14.2096055,10.1952375 C13.9820079,10.3823733 13.8682108,10.6301981 13.8682108,10.9387193 C13.8682108,11.2472405 14.0072961,11.4925364 14.285471,11.6746145 C14.5636458,11.8566926 15.2059672,12.0716426 16.2124543,12.3194711 C17.2189415,12.5672996 18.0003482,12.9390368 18.5566978,13.4346938 C19.1130475,13.9303507 19.3912182,14.6535945 19.3912182,15.6044466 C19.3912182,16.5552988 19.034654,17.3265902 18.3215148,17.918344 C17.6083757,18.5100977 16.6701819,18.8059701 15.5069053,18.8059701 C13.8277408,18.8059701 12.3155039,18.1838794 10.9701493,16.9396792 L12.3812473,15.2099461 C13.524293,16.2113755 14.5813415,16.7120827 15.5524246,16.7120827 C15.9873889,16.7120827 16.3287802,16.6185162 16.5766087,16.4313804 C16.8244372,16.2442446 16.9483495,15.9913622 16.9483495,15.6727256 C16.9483495,15.3540889 16.8168507,15.1012065 16.553849,14.9140707 C16.2908473,14.7269349 15.7699096,14.5372731 14.99102,14.3450796 C13.7569353,14.0517316 12.854145,13.6698791 12.2826222,13.1995107 C11.7110993,12.7291424 11.4253422,11.9907257 11.4253422,10.9842386 C11.4253422,9.97775141 11.786964,9.20140237 12.5102186,8.65516814 C13.2334732,8.10893391 14.1362635,7.8358209 15.2186165,7.8358209 C15.9266979,7.8358209 16.6347687,7.95720446 17.3428501,8.19997523 C18.0509315,8.442746 18.6679646,8.78666609 19.1939679,9.23174584 L17.9952932,10.9614789 C17.0747874,10.263513 16.1239495,9.91453521 15.142751,9.91453521 C14.7482485,9.91453521 14.4372031,10.0081017 14.2096055,10.1952375 Z M29.3472988,9.02690902 C30.0907843,9.65912457 30.4625214,10.6301931 30.4625214,11.9401437 C30.4625214,13.2500943 30.080669,14.2085187 29.3169526,14.8154456 C28.5532362,15.4223725 27.3874482,15.7258314 25.8195537,15.7258314 L24.4084556,15.7258314 L24.4084556,18.6845854 L22.0414525,18.6845854 L22.0414525,8.07859045 L25.7892075,8.07859045 C27.4177947,8.07859045 28.6038133,8.39469348 29.3472988,9.02690902 Z M27.6099791,13.1995107 C27.8932117,12.8808741 28.0348259,12.4155705 28.0348259,11.8035858 C28.0348259,11.1916012 27.8502217,10.7566434 27.4810078,10.4986994 C27.1117939,10.2407555 26.5377508,10.1117855 25.7588613,10.1117855 L24.4084556,10.1117855 L24.4084556,13.6774633 L26.0016308,13.6774633 C26.7906358,13.6774633 27.3267466,13.5181474 27.6099791,13.1995107 Z M40.1530728,10.9007865 C39.5461459,10.2331669 38.8001427,9.89936211 37.915041,9.89936211 C37.0299392,9.89936211 36.2839361,10.2331669 35.6770091,10.9007865 C35.0700822,11.5684061 34.7666233,12.3751011 34.7666233,13.3208955 C34.7666233,14.26669 35.0700822,15.0708561 35.6770091,15.733418 C36.2839361,16.3959799 37.0299392,16.7272558 37.915041,16.7272558 C38.8001427,16.7272558 39.5461459,16.3959799 40.1530728,15.733418 C40.7599997,15.0708561 41.0634586,14.26669 41.0634586,13.3208955 C41.0634586,12.3751011 40.7599997,11.5684061 40.1530728,10.9007865 Z M37.9074544,18.7907971 C36.3395599,18.7907971 35.0195136,18.2673304 33.9472761,17.2203815 C32.8750385,16.1734326 32.3389278,14.8710881 32.3389278,13.313309 C32.3389278,11.7555299 32.8750385,10.4531854 33.9472761,9.40623645 C35.0195136,8.35928751 36.3395599,7.8358209 37.9074544,7.8358209 C39.475349,7.8358209 40.7953952,8.35928751 41.8676328,9.40623645 C42.9398704,10.4531854 43.4759811,11.7555299 43.4759811,13.313309 C43.4759811,14.8710881 42.9398704,16.1734326 41.8676328,17.2203815 C40.7953952,18.2673304 39.475349,18.7907971 37.9074544,18.7907971 Z M54.7141884,11.598749 C54.7141884,13.2981444 54.0415211,14.3956541 52.6961665,14.8913111 L55.3818047,18.6845854 L52.46857,18.6845854 L50.11674,15.3009847 L48.4780455,15.3009847 L48.4780455,18.6845854 L46.1110423,18.6845854 L46.1110423,8.07859045 L50.131913,8.07859045 C51.7807312,8.07859045 52.9566345,8.35676112 53.6596581,8.91311079 C54.3626818,9.46946047 54.7141884,10.3646643 54.7141884,11.598749 Z M51.8616461,12.8581161 C52.1549941,12.5951144 52.3016659,12.1778584 52.3016659,11.6063355 C52.3016659,11.0348127 52.1499365,10.6428449 51.846473,10.4304205 C51.5430096,10.2179961 51.0119565,10.1117855 50.2532978,10.1117855 L48.4780455,10.1117855 L48.4780455,13.2526166 L50.2077785,13.2526166 C51.0170144,13.2526166 51.5682981,13.1211177 51.8616461,12.8581161 Z M62.0529097,10.1269586 L62.0529097,18.6845854 L59.6859066,18.6845854 L59.6859066,10.1269586 L56.6816333,10.1269586 L56.6816333,8.07859045 L65.057183,8.07859045 L65.057183,10.1269586 L62.0529097,10.1269586 Z M69.8999298,10.1952375 C69.6723322,10.3823733 69.5585351,10.6301981 69.5585351,10.9387193 C69.5585351,11.2472405 69.6976205,11.4925364 69.9757953,11.6746145 C70.2539701,11.8566926 70.8962915,12.0716426 71.9027786,12.3194711 C72.9092658,12.5672996 73.6906725,12.9390368 74.2470222,13.4346938 C74.8033718,13.9303507 75.0815425,14.6535945 75.0815425,15.6044466 C75.0815425,16.5552988 74.7249783,17.3265902 74.0118391,17.918344 C73.2987,18.5100977 72.3605062,18.8059701 71.1972296,18.8059701 C69.5180651,18.8059701 68.0058282,18.1838794 66.6604736,16.9396792 L68.0715716,15.2099461 C69.2146173,16.2113755 70.2716658,16.7120827 71.2427489,16.7120827 C71.6777132,16.7120827 72.0191045,16.6185162 72.266933,16.4313804 C72.5147615,16.2442446 72.6386739,15.9913622 72.6386739,15.6727256 C72.6386739,15.3540889 72.507175,15.1012065 72.2441733,14.9140707 C71.9811717,14.7269349 71.4602339,14.5372731 70.6813443,14.3450796 C69.4472596,14.0517316 68.5444693,13.6698791 67.9729465,13.1995107 C67.4014236,12.7291424 67.1156665,11.9907257 67.1156665,10.9842386 C67.1156665,9.97775141 67.4772883,9.20140237 68.2005429,8.65516814 C68.9237975,8.10893391 69.8265878,7.8358209 70.9089408,7.8358209 C71.6170222,7.8358209 72.325093,7.95720446 73.0331744,8.19997523 C73.7412558,8.442746 74.3582889,8.78666609 74.8842922,9.23174584 L73.6856176,10.9614789 C72.7651117,10.263513 71.8142738,9.91453521 70.8330753,9.91453521 C70.4385728,9.91453521 70.1275274,10.0081017 69.8999298,10.1952375 Z" id="SPORTS" fill="#FFFFFF"></path>
                            </g>
                        </g>
                    </g>
                </g>
            </g>
        </g>
    </g>
</svg>