<?xml version="1.0" encoding="UTF-8"?>
<svg width="28px" height="48px" viewBox="0 0 28 48" version="1.1" xmlns="http://www.w3.org/2000/svg" xmlns:xlink="http://www.w3.org/1999/xlink">
    <!-- Generator: Sketch 43.2 (39069) - http://www.bohemiancoding.com/sketch -->
    <title>mapicon</title>
    <desc>Created with Sketch.</desc>
    <defs>
        <linearGradient x1="0%" y1="0%" x2="101.999998%" y2="100.999999%" id="linearGradient-1">
            <stop stop-color="#3023AE" offset="0%"></stop>
            <stop stop-color="#C96DD8" offset="100%"></stop>
        </linearGradient>
    </defs>
    <g id="Page-1" stroke="none" stroke-width="1" fill="none" fill-rule="evenodd">
        <g id="mapicon" fill-rule="nonzero" fill="url(#linearGradient-1)">
            <path d="M27.259,11.708 L14.679,0.359 C14.132,-0.12 13.38,-0.12 12.833,0.359 L0.8,11.025 C0.463,11.287 0.326,11.671 0.336,12.055 L0.32,12.055 L0.32,29.625 C0.32,29.822 0.32,30.441 0.798,30.849 C1.009,31.06 1.347,31.201 1.755,31.201 L3.077,31.201 C3.457,33.803 4.793,36.209 6.116,38.46 C8.029,41.752 10.308,44.818 12.953,47.547 C13.53,48.152 14.472,48.152 15.063,47.547 C17.398,45.254 19.452,42.638 21.196,39.866 C22.8,37.264 24.53,34.309 24.966,31.201 L25.416,31.201 L25.557,31.201 L25.895,31.201 C26.233,31.201 26.781,31.131 27.189,30.779 C27.47,30.441 27.667,30.033 27.667,29.625 L27.667,12.885 C27.726,12.453 27.597,12.004 27.259,11.708 Z M14.007,26.451 C10.912,26.451 8.31,24.341 7.55,21.499 C7.395,20.95 7.311,20.36 7.311,19.755 C7.311,19.417 7.339,19.08 7.395,18.756 C7.873,15.535 10.645,13.059 14.007,13.059 C17.355,13.059 20.126,15.521 20.605,18.756 C20.661,19.08 20.689,19.417 20.689,19.755 C20.689,20.36 20.605,20.951 20.45,21.499 C19.69,24.355 17.088,26.451 14.007,26.451 Z" id="Shape"></path>
        </g>
    </g>
</svg>