<?xml version="1.0" encoding="UTF-8"?>
<svg width="200px" height="243px" viewBox="0 0 200 243" version="1.1" xmlns="http://www.w3.org/2000/svg" xmlns:xlink="http://www.w3.org/1999/xlink">
    <!-- Generator: Sketch 44 (41411) - http://www.bohemiancoding.com/sketch -->
    <title>Artboard</title>
    <desc>Created with Sketch.</desc>
    <defs>
        <polygon id="path-1" points="0.6819 0.552 150.6819 0.552 150.6819 150.5518 0.6819 150.5518"></polygon>
        <polygon id="path-3" points="0 241.448 199.363 241.448 199.363 0 0 0"></polygon>
        <polygon id="path-5" points="0 241.448 199.363 241.448 199.363 0 0 0"></polygon>
        <polygon id="path-7" points="0 241.448 199.363 241.448 199.363 0 0 0"></polygon>
        <polygon id="path-9" points="0 241.448 199.363 241.448 199.363 0 0 0"></polygon>
        <polygon id="path-11" points="0 241.448 199.363 241.448 199.363 0 0 0"></polygon>
        <polygon id="path-13" points="0 241.448 199.363 241.448 199.363 0 0 0 0 189.277694"></polygon>
    </defs>
    <g id="Page-1" stroke="none" stroke-width="1" fill="none" fill-rule="evenodd">
        <g id="Artboard">
            <g id="wtlogo">
                <g id="Group-3" transform="translate(24.000000, 0.448000)">
                    <g id="Fill-1-Clipped">
                        <mask id="mask-2" fill="white">
                            <use xlink:href="#path-1"></use>
                        </mask>
                        <g id="path-1"></g>
                        <path d="M150.6819,75.5518 C150.6819,116.9728 117.1029,150.5518 75.6819,150.5518 C34.2609,150.5518 0.6819,116.9728 0.6819,75.5518 C0.6819,34.1308 34.2609,0.5518 75.6819,0.5518 C117.1029,0.5518 150.6819,34.1308 150.6819,75.5518" id="Fill-1" fill="#0D3BC4" fill-rule="nonzero" mask="url(#mask-2)"></path>
                    </g>
                </g>
                <polygon id="Fill-4" fill="#FFFFFF" fill-rule="nonzero" points="104.7004 110.7478 94.6624 110.7478 99.6814 101.6218"></polygon>
                <polygon id="Fill-6" fill="#FFFFFF" fill-rule="nonzero" points="144.6819 58.1804 139.0479 68.4234 122.7279 98.0964 120.2699 102.5664 109.8219 102.5664 107.3639 98.0964 102.2429 88.7854 99.6819 84.1284 97.1209 88.7854 91.9999 98.0964 89.5409 102.5664 79.0939 102.5664 76.6359 98.0964 60.3149 68.4234 54.6819 58.1804 64.9249 58.1804 70.5579 68.4234 81.7569 88.7854 84.3179 93.4394 86.8779 88.7854 91.9999 79.4724 94.5599 74.8184 95.2599 73.5444 104.1029 73.5444 104.8029 74.8184 107.3639 79.4724 112.4849 88.7854 115.0459 93.4394 117.6069 88.7854 128.8059 68.4234 134.4389 58.1804"></polygon>
                <polygon id="Fill-8" fill="#FFFFFF" fill-rule="nonzero" points="119.655 75.7488 129.318 58.1808 119.074 58.1808 80.289 58.1808 70.046 58.1808 79.708 75.7488 83.737 68.4238 115.626 68.4238"></polygon>
                <polygon id="Fill-10" fill="#FFFFFF" fill-rule="nonzero" points="104.3562 49.7527 102.6082 46.5717 101.7502 45.0117 101.4302 44.4297 99.6822 41.2517 97.9332 44.4297 97.6132 45.0117 96.7552 46.5717 95.0072 49.7527 92.8532 45.8367 92.8532 53.6657 92.8532 54.0837 96.1212 54.0837 97.3892 54.0837 98.4782 54.0837 100.8852 54.0837 101.9742 54.0837 103.2422 54.0837 106.5102 54.0837 106.5102 53.6657 106.5102 45.8367"></polygon>
                <polygon id="Fill-12" fill="#FFFFFF" fill-rule="nonzero" points="4.967 187.7585 9.611 202.2655 14.903 187.7585 19.726 187.7585 24.908 202.3005 29.733 187.7585 34.663 187.7585 27.284 208.8165 22.605 208.8165 17.278 194.2375 11.807 208.8165 7.019 208.8165 0 187.7585"></polygon>
                <path d="M41.5969,192.7986 C40.5299,193.5896 39.7799,194.6336 39.3469,195.9296 L51.2979,195.9296 C50.9379,194.5146 50.2419,193.4406 49.2099,192.7076 C48.1779,191.9766 46.9069,191.6106 45.3949,191.6106 C43.9309,191.6106 42.6649,192.0066 41.5969,192.7986 M41.0389,208.4026 C39.6709,207.8386 38.5009,207.0646 37.5299,206.0806 C36.5579,205.0966 35.8019,203.9396 35.2619,202.6076 C34.7219,201.2756 34.4509,199.8536 34.4509,198.3416 C34.4509,196.8056 34.7339,195.3656 35.2979,194.0226 C35.8619,192.6786 36.6359,191.5146 37.6189,190.5296 C38.6039,189.5466 39.7609,188.7666 41.0929,188.1916 C42.4249,187.6146 43.8589,187.3266 45.3949,187.3266 C46.9539,187.3266 48.3999,187.5966 49.7319,188.1366 C51.0639,188.6766 52.2089,189.4326 53.1689,190.4036 C54.1289,191.3766 54.8789,192.5226 55.4189,193.8416 C55.9589,195.1616 56.2289,196.6016 56.2289,198.1616 L56.2289,199.9966 L39.0949,199.9966 C39.4309,201.4856 40.1629,202.6856 41.2909,203.5966 C42.4189,204.5086 43.8469,204.9646 45.5749,204.9646 C46.9429,204.9646 48.1299,204.6286 49.1379,203.9566 C50.1459,203.2846 50.9019,202.3846 51.4059,201.2576 L55.4019,203.5616 C54.4899,205.2646 53.2109,206.6386 51.5679,207.6826 C49.9239,208.7266 47.9259,209.2476 45.5749,209.2476 C43.9179,209.2476 42.4069,208.9666 41.0389,208.4026" id="Fill-14" fill="#FFFFFF" fill-rule="nonzero"></path>
                <path d="M71.7815,204.281 C72.5505,203.945 73.2215,203.483 73.7985,202.895 C74.3735,202.307 74.8235,201.611 75.1475,200.807 C75.4715,200.004 75.6335,199.145 75.6335,198.233 C75.6335,197.322 75.4715,196.469 75.1475,195.677 C74.8235,194.885 74.3735,194.202 73.7985,193.626 C73.2215,193.051 72.5505,192.594 71.7815,192.259 C71.0135,191.923 70.1855,191.755 69.2985,191.755 C68.4105,191.755 67.5825,191.923 66.8145,192.259 C66.0475,192.594 65.3815,193.056 64.8165,193.644 C64.2535,194.232 63.8145,194.922 63.5035,195.714 C63.1905,196.506 63.0355,197.345 63.0355,198.233 C63.0355,199.145 63.1905,199.997 63.5035,200.789 C63.8145,201.581 64.2535,202.277 64.8165,202.877 C65.3815,203.477 66.0475,203.945 66.8145,204.281 C67.5825,204.617 68.4105,204.785 69.2985,204.785 C70.1855,204.785 71.0135,204.617 71.7815,204.281 M66.1665,208.421 C64.9675,207.868 63.9825,207.089 63.2155,206.081 L63.2155,208.816 L58.3915,208.816 L58.3915,182.179 L63.2515,182.179 L63.2515,190.423 C63.9955,189.487 64.9615,188.737 66.1485,188.173 C67.3365,187.609 68.6375,187.327 70.0535,187.327 C71.3745,187.327 72.6575,187.573 73.9055,188.065 C75.1535,188.556 76.2575,189.27 77.2175,190.207 C78.1775,191.142 78.9515,192.288 79.5395,193.644 C80.1275,195 80.4215,196.553 80.4215,198.305 C80.4215,200.033 80.1215,201.575 79.5205,202.93 C78.9215,204.287 78.1355,205.432 77.1635,206.369 C76.1915,207.304 75.0945,208.018 73.8695,208.51 C72.6455,209.002 71.3975,209.248 70.1265,209.248 C68.6865,209.248 67.3665,208.972 66.1665,208.421" id="Fill-16" fill="#FFFFFF" fill-rule="nonzero"></path>
                <path d="M95.2542,204.1726 C95.9982,203.8366 96.6462,203.3806 97.1972,202.8046 C97.7492,202.2296 98.1822,201.5516 98.4932,200.7716 C98.8062,199.9906 98.9612,199.1696 98.9612,198.3056 C98.9612,197.4176 98.8062,196.5836 98.4932,195.8036 C98.1822,195.0246 97.7492,194.3466 97.1972,193.7706 C96.6462,193.1936 95.9982,192.7376 95.2542,192.4016 C94.5102,192.0666 93.7062,191.8986 92.8422,191.8986 C91.9792,191.8986 91.1682,192.0666 90.4122,192.4016 C89.6562,192.7376 89.0092,193.1936 88.4692,193.7706 C87.9292,194.3466 87.5032,195.0246 87.1912,195.8036 C86.8792,196.5836 86.7232,197.4176 86.7232,198.3056 C86.7232,199.1696 86.8792,199.9906 87.1912,200.7716 C87.5032,201.5516 87.9292,202.2296 88.4692,202.8046 C89.0092,203.3806 89.6562,203.8366 90.4122,204.1726 C91.1682,204.5086 91.9792,204.6766 92.8422,204.6766 C93.7062,204.6766 94.5102,204.5086 95.2542,204.1726 M88.5772,208.4016 C87.2452,207.8386 86.0872,207.0586 85.1042,206.0626 C84.1192,205.0666 83.3462,203.9026 82.7812,202.5706 C82.2182,201.2386 81.9362,199.8176 81.9362,198.3056 C81.9362,196.7696 82.2182,195.3356 82.7812,194.0036 C83.3462,192.6726 84.1192,191.5086 85.1042,190.5126 C86.0872,189.5166 87.2452,188.7366 88.5772,188.1726 C89.9082,187.6096 91.3302,187.3266 92.8422,187.3266 C94.3542,187.3266 95.7702,187.6096 97.0902,188.1726 C98.4092,188.7366 99.5672,189.5166 100.5642,190.5126 C101.5592,191.5086 102.3392,192.6726 102.9032,194.0036 C103.4672,195.3356 103.7492,196.7696 103.7492,198.3056 C103.7492,199.8176 103.4672,201.2386 102.9032,202.5706 C102.3392,203.9026 101.5592,205.0666 100.5642,206.0626 C99.5672,207.0586 98.4092,207.8386 97.0902,208.4016 C95.7702,208.9666 94.3542,209.2476 92.8422,209.2476 C91.3302,209.2476 89.9082,208.9666 88.5772,208.4016" id="Fill-18" fill="#FFFFFF" fill-rule="nonzero"></path>
                <g id="Fill-20-Clipped" transform="translate(0.000000, 1.000000)">
                    <mask id="mask-4" fill="white">
                        <use xlink:href="#path-3"></use>
                    </mask>
                    <g id="path-3"></g>
                    <polygon id="Fill-20" fill="#FFFFFF" fill-rule="nonzero" mask="url(#mask-4)" points="105.875 207.816 110.771 207.816 110.771 181.179 105.875 181.179"></polygon>
                </g>
                <g id="Fill-22-Clipped" transform="translate(0.000000, 1.000000)">
                    <mask id="mask-6" fill="white">
                        <use xlink:href="#path-5"></use>
                    </mask>
                    <g id="path-3"></g>
                    <path d="M113.578,207.816 L118.474,207.816 L118.474,186.758 L113.578,186.758 L113.578,207.816 Z M113.794,179.398 C114.347,178.834 115.09,178.552 116.027,178.552 C116.987,178.552 117.737,178.834 118.276,179.398 C118.816,179.962 119.086,180.7 119.086,181.611 C119.086,182.523 118.816,183.256 118.276,183.807 C117.737,184.359 116.987,184.635 116.027,184.635 C115.042,184.635 114.286,184.359 113.759,183.807 C113.231,183.256 112.967,182.523 112.967,181.611 C112.967,180.7 113.242,179.962 113.794,179.398 L113.794,179.398 Z" id="Fill-22" fill="#FFFFFF" fill-rule="nonzero" mask="url(#mask-6)"></path>
                </g>
                <g id="Fill-23-Clipped" transform="translate(0.000000, 1.000000)">
                    <mask id="mask-8" fill="white">
                        <use xlink:href="#path-7"></use>
                    </mask>
                    <g id="path-3"></g>
                    <polygon id="Fill-23" fill="#FFFFFF" fill-rule="nonzero" mask="url(#mask-8)" points="133.1252 191.0779 121.1392 191.0779 121.1392 186.7589 139.4612 186.7589 139.4612 191.1859 127.2222 203.4969 139.6762 203.4969 139.6762 207.8159 120.8872 207.8159 120.8872 203.3889"></polygon>
                </g>
                <g id="Fill-24-Clipped" transform="translate(0.000000, 1.000000)">
                    <mask id="mask-10" fill="white">
                        <use xlink:href="#path-9"></use>
                    </mask>
                    <g id="path-3"></g>
                    <path d="M146.8772,186.7585 L146.8772,189.2065 C147.5492,188.3185 148.3962,187.6165 149.4152,187.1005 C150.4362,186.5845 151.5932,186.3265 152.8892,186.3265 C154.5452,186.3265 155.9422,186.6455 157.0822,187.2805 C158.2232,187.9165 159.1052,188.8105 159.7282,189.9625 C160.4482,188.8585 161.4012,187.9765 162.5902,187.3175 C163.7772,186.6565 165.1272,186.3265 166.6392,186.3265 C169.4712,186.3265 171.6062,187.1125 173.0462,188.6845 C174.4862,190.2565 175.2062,192.4095 175.2062,195.1465 L175.2062,207.8165 L170.2382,207.8165 L170.2382,195.5415 C170.2382,194.0055 169.8552,192.7875 169.0872,191.8885 C168.3192,190.9875 167.1792,190.5385 165.6672,190.5385 C164.3482,190.5385 163.2432,190.9935 162.3562,191.9055 C161.4682,192.8185 161.0232,194.1975 161.0232,196.0455 L161.0232,207.8165 L156.0932,207.8165 L156.0932,195.3985 C156.0932,193.8855 155.7212,192.6975 154.9772,191.8335 C154.2322,190.9705 153.1292,190.5385 151.6652,190.5385 C150.2972,190.5385 149.1632,191.0065 148.2642,191.9425 C147.3632,192.8775 146.9142,194.2815 146.9142,196.1545 L146.9142,207.8165 L142.0552,207.8165 L142.0552,186.7585 L146.8772,186.7585 Z" id="Fill-24" fill="#FFFFFF" fill-rule="nonzero" mask="url(#mask-10)"></path>
                </g>
                <g id="Fill-25-Clipped" transform="translate(0.000000, 1.000000)">
                    <mask id="mask-12" fill="white">
                        <use xlink:href="#path-11"></use>
                    </mask>
                    <g id="path-3"></g>
                    <path d="M190.9768,203.281 C191.7448,202.945 192.4048,202.477 192.9558,201.877 C193.5078,201.277 193.9468,200.581 194.2698,199.789 C194.5938,198.997 194.7558,198.145 194.7558,197.233 C194.7558,196.345 194.5938,195.506 194.2698,194.714 C193.9468,193.922 193.5078,193.232 192.9558,192.644 C192.4048,192.056 191.7448,191.594 190.9768,191.259 C190.2078,190.923 189.3688,190.755 188.4568,190.755 C187.5688,190.755 186.7348,190.923 185.9558,191.259 C185.1748,191.594 184.4978,192.051 183.9208,192.626 C183.3458,193.202 182.8958,193.885 182.5718,194.677 C182.2478,195.469 182.0848,196.322 182.0848,197.233 C182.0848,198.145 182.2478,199.004 182.5718,199.807 C182.8958,200.611 183.3458,201.307 183.9208,201.895 C184.4978,202.483 185.1748,202.945 185.9558,203.281 C186.7348,203.617 187.5688,203.785 188.4568,203.785 C189.3688,203.785 190.2078,203.617 190.9768,203.281 M183.9038,207.51 C182.6668,207.018 181.5578,206.304 180.5738,205.369 C179.5898,204.432 178.7978,203.287 178.1988,201.93 C177.5978,200.575 177.2978,199.033 177.2978,197.305 C177.2978,195.553 177.5918,194 178.1798,192.644 C178.7678,191.288 179.5478,190.142 180.5198,189.207 C181.4918,188.27 182.6078,187.556 183.8678,187.065 C185.1268,186.573 186.4168,186.327 187.7368,186.327 C189.1288,186.327 190.4128,186.591 191.5878,187.119 C192.7638,187.646 193.7368,188.367 194.5038,189.278 L194.5038,186.759 L199.3638,186.759 L199.3638,207.816 L194.5038,207.816 L194.5038,205.081 C193.7368,206.064 192.7518,206.839 191.5528,207.402 C190.3528,207.967 189.0568,208.248 187.6648,208.248 C186.3928,208.248 185.1388,208.002 183.9038,207.51" id="Fill-25" fill="#FFFFFF" fill-rule="nonzero" mask="url(#mask-12)"></path>
                </g>
                <g id="Group-32-Clipped" transform="translate(0.000000, 1.000000)">
                    <mask id="mask-14" fill="white">
                        <use xlink:href="#path-13"></use>
                    </mask>
                    <g id="path-3"></g>
                    <g id="Group-32" mask="url(#mask-14)">
                        <g transform="translate(31.000000, 212.000000)" id="Group">
                            <g transform="translate(0.000000, 0.448000)">
                                <path d="M4.0813,7.5107 L4.0813,4.3077 L8.9773,0.9597 L8.9773,7.5107 L13.2603,7.5107 L13.2603,11.8657 L8.9773,11.8657 L8.9773,19.7487 C8.9773,20.6607 9.0243,21.3997 9.1203,21.9627 C9.2163,22.5277 9.4143,22.9587 9.7143,23.2587 C10.0143,23.5587 10.4463,23.7567 11.0103,23.8527 C11.5743,23.9487 12.3233,23.9967 13.2603,23.9967 L13.2603,28.5687 L12.5753,28.5687 C10.9443,28.5687 9.5823,28.4247 8.4903,28.1367 C7.3983,27.8487 6.5283,27.3627 5.8813,26.6787 C5.2323,25.9947 4.7703,25.0947 4.4953,23.9787 C4.2193,22.8637 4.0813,21.4647 4.0813,19.7847 L4.0813,11.8657 L0.4813,11.8657 L0.4813,7.5107 L4.0813,7.5107 Z" id="Fill-26" fill="#FFFFFF" fill-rule="nonzero"></path>
                                <path d="M20.4602,1.9316 L20.4602,10.0306 C21.1802,9.1186 22.0742,8.3986 23.1422,7.8706 C24.2102,7.3426 25.4162,7.0786 26.7602,7.0786 C29.3752,7.0786 31.4212,7.8706 32.8972,9.4546 C34.3722,11.0376 35.1102,13.2456 35.1102,16.0776 L35.1102,28.5686 L30.1432,28.5686 L30.1432,16.6186 C30.1432,14.9616 29.7472,13.6606 28.9552,12.7116 C28.1632,11.7646 26.9762,11.2896 25.3922,11.2896 C24.7202,11.2896 24.0842,11.4166 23.4832,11.6686 C22.8842,11.9206 22.3622,12.2856 21.9182,12.7666 C21.4742,13.2456 21.1262,13.8466 20.8742,14.5666 C20.6222,15.2856 20.4962,16.1016 20.4962,17.0136 L20.4962,28.5686 L15.6012,28.5686 L15.6012,1.9316 L20.4602,1.9316 Z" id="Fill-27" fill="#FFFFFF" fill-rule="nonzero"></path>
                                <path d="M44.3459,12.5508 C43.2779,13.3418 42.5279,14.3858 42.0959,15.6818 L54.0459,15.6818 C53.6869,14.2668 52.9909,13.1928 51.9579,12.4598 C50.9269,11.7288 49.6549,11.3628 48.1429,11.3628 C46.6789,11.3628 45.4129,11.7588 44.3459,12.5508 M43.7869,28.1548 C42.4199,27.5908 41.2499,26.8168 40.2779,25.8328 C39.3059,24.8488 38.5499,23.6918 38.0099,22.3598 C37.4699,21.0278 37.1999,19.6058 37.1999,18.0938 C37.1999,16.5578 37.4829,15.1178 38.0459,13.7748 C38.6109,12.4308 39.3839,11.2668 40.3679,10.2818 C41.3519,9.2988 42.5099,8.5188 43.8419,7.9438 C45.1729,7.3668 46.6079,7.0788 48.1429,7.0788 C49.7019,7.0788 51.1489,7.3488 52.4809,7.8888 C53.8129,8.4288 54.9579,9.1848 55.9179,10.1558 C56.8779,11.1288 57.6279,12.2748 58.1679,13.5948 C58.7069,14.9138 58.9779,16.3538 58.9779,17.9138 L58.9779,19.7488 L41.8439,19.7488 C42.1799,21.2378 42.9109,22.4378 44.0389,23.3488 C45.1669,24.2608 46.5949,24.7168 48.3229,24.7168 C49.6909,24.7168 50.8789,24.3808 51.8869,23.7088 C52.8949,23.0368 53.6509,22.1368 54.1549,21.0098 L58.1499,23.3138 C57.2379,25.0168 55.9599,26.3908 54.3169,27.4348 C52.6719,28.4788 50.6749,28.9998 48.3229,28.9998 C46.6669,28.9998 45.1559,28.7188 43.7869,28.1548" id="Fill-28" fill="#FFFFFF" fill-rule="nonzero"></path>
                                <path d="M65.9631,7.5107 L65.9631,9.9587 C66.6351,9.0717 67.4821,8.3687 68.5011,7.8527 C69.5211,7.3367 70.6791,7.0787 71.9751,7.0787 C73.6301,7.0787 75.0281,7.3977 76.1681,8.0327 C77.3081,8.6687 78.1901,9.5627 78.8141,10.7147 C79.5331,9.6107 80.4871,8.7287 81.6761,8.0697 C82.8631,7.4087 84.2131,7.0787 85.7251,7.0787 C88.5571,7.0787 90.6921,7.8647 92.1321,9.4367 C93.5721,11.0087 94.2921,13.1617 94.2921,15.8977 L94.2921,28.5687 L89.3241,28.5687 L89.3241,16.2937 C89.3241,14.7577 88.9411,13.5397 88.1731,12.6407 C87.4041,11.7397 86.2651,11.2897 84.7531,11.2897 C83.4341,11.2897 82.3291,11.7457 81.4421,12.6577 C80.5541,13.5707 80.1091,14.9497 80.1091,16.7977 L80.1091,28.5687 L75.1781,28.5687 L75.1781,16.1507 C75.1781,14.6377 74.8071,13.4497 74.0631,12.5857 C73.3181,11.7227 72.2151,11.2897 70.7511,11.2897 C69.3831,11.2897 68.2491,11.7587 67.3501,12.6947 C66.4491,13.6297 65.9991,15.0337 65.9991,16.9067 L65.9991,28.5687 L61.1401,28.5687 L61.1401,7.5107 L65.9631,7.5107 Z" id="Fill-29" fill="#FFFFFF" fill-rule="nonzero"></path>
                                <path d="M103.5295,12.5508 C102.4615,13.3418 101.7115,14.3858 101.2795,15.6818 L113.2295,15.6818 C112.8705,14.2668 112.1745,13.1928 111.1415,12.4598 C110.1105,11.7288 108.8385,11.3628 107.3265,11.3628 C105.8625,11.3628 104.5965,11.7588 103.5295,12.5508 M102.9705,28.1548 C101.6035,27.5908 100.4335,26.8168 99.4615,25.8328 C98.4895,24.8488 97.7335,23.6918 97.1935,22.3598 C96.6535,21.0278 96.3835,19.6058 96.3835,18.0938 C96.3835,16.5578 96.6665,15.1178 97.2295,13.7748 C97.7935,12.4308 98.5675,11.2668 99.5515,10.2818 C100.5355,9.2988 101.6935,8.5188 103.0255,7.9438 C104.3565,7.3668 105.7915,7.0788 107.3265,7.0788 C108.8855,7.0788 110.3325,7.3488 111.6645,7.8888 C112.9965,8.4288 114.1415,9.1848 115.1015,10.1558 C116.0615,11.1288 116.8115,12.2748 117.3515,13.5948 C117.8905,14.9138 118.1615,16.3538 118.1615,17.9138 L118.1615,19.7488 L101.0275,19.7488 C101.3635,21.2378 102.0945,22.4378 103.2225,23.3488 C104.3505,24.2608 105.7785,24.7168 107.5065,24.7168 C108.8745,24.7168 110.0625,24.3808 111.0705,23.7088 C112.0785,23.0368 112.8345,22.1368 113.3385,21.0098 L117.3335,23.3138 C116.4215,25.0168 115.1435,26.3908 113.5005,27.4348 C111.8555,28.4788 109.8585,28.9998 107.5065,28.9998 C105.8505,28.9998 104.3395,28.7188 102.9705,28.1548" id="Fill-30" fill="#FFFFFF" fill-rule="nonzero"></path>
                                <path d="M122.4475,27.6865 C120.9115,26.8105 119.7235,25.5445 118.8845,23.8885 L123.3835,21.7295 C123.8865,22.7125 124.5715,23.4685 125.4345,23.9975 C126.2995,24.5245 127.3065,24.7895 128.4585,24.7895 C129.6585,24.7895 130.5585,24.5375 131.1585,24.0335 C131.7585,23.5295 132.0575,22.9285 132.0575,22.2335 C132.0575,21.8495 131.9205,21.5375 131.6445,21.2965 C131.3685,21.0575 131.0085,20.8475 130.5645,20.6665 C130.1205,20.4875 129.5985,20.3365 128.9985,20.2175 C128.3985,20.0975 127.7745,19.9655 127.1275,19.8215 C126.2155,19.6295 125.3215,19.4015 124.4455,19.1375 C123.5695,18.8735 122.7835,18.5075 122.0875,18.0405 C121.3915,17.5715 120.8275,16.9715 120.3955,16.2405 C119.9645,15.5075 119.7485,14.5895 119.7485,13.4865 C119.7485,12.6465 119.9455,11.8365 120.3425,11.0565 C120.7375,10.2765 121.2955,9.5865 122.0155,8.9875 C122.7355,8.3865 123.6055,7.9135 124.6255,7.5655 C125.6445,7.2165 126.7785,7.0425 128.0265,7.0425 C130.1385,7.0425 131.8965,7.4325 133.3005,8.2125 C134.7045,8.9935 135.8135,10.0545 136.6305,11.3985 L132.4905,13.4865 C132.0575,12.7425 131.4585,12.1545 130.6905,11.7225 C129.9225,11.2905 129.0345,11.0745 128.0265,11.0745 C126.8755,11.0745 126.0225,11.3025 125.4705,11.7585 C124.9185,12.2145 124.6425,12.7425 124.6425,13.3415 C124.6425,14.0385 125.0515,14.5365 125.8675,14.8355 C126.6825,15.1355 127.8835,15.4545 129.4675,15.7905 C130.3305,15.9575 131.2005,16.1795 132.0765,16.4565 C132.9525,16.7315 133.7505,17.1035 134.4695,17.5715 C135.1905,18.0405 135.7725,18.6395 136.2165,19.3715 C136.6595,20.1035 136.8825,21.0215 136.8825,22.1245 C136.8825,22.8695 136.7145,23.6425 136.3785,24.4475 C136.0425,25.2505 135.5205,25.9955 134.8115,26.6785 C134.1045,27.3625 133.2105,27.9205 132.1305,28.3525 C131.0505,28.7845 129.7545,28.9995 128.2425,28.9995 C125.9155,28.9995 123.9835,28.5625 122.4475,27.6865" id="Fill-31" fill="#FFFFFF" fill-rule="nonzero"></path>
                            </g>
                        </g>
                    </g>
                </g>
            </g>
        </g>
    </g>
</svg>